<svg width="300" height="300" xmlns="http://www.w3.org/2000/svg" clip-rule="evenodd">

 <g>
  <title>background</title>
  <rect fill="none" id="canvas_background" height="402" width="582" y="-1" x="-1"/>
 </g>
 <g>
  <title>Layer 1</title>
  <g id="svg_1" transform="matrix(0.6482363789188862,0,0,0.6486874244111777,-86.00476251392837,-86.466528151844) ">
   <circle id="svg_2" fill="rgb(255,145,77)" r="230.630997" cy="364.53079" cx="364.072105"/>
  </g>
  <g id="svg_3" transform="matrix(2.6907656029518296,0,0,2.606845558792132,-875.8906665380281,-785.8567824351139) ">
   <ellipse id="svg_4" fill="white" ry="55.677" rx="53.572" cy="358.999721" cx="381.263501"/>
  </g>
  <g id="svg_5" transform="matrix(2.377429223438726,0,0,2.4143110986687244,-734.3459937003287,-724.9224472096113) ">
   <ellipse id="svg_6" fill="rgb(255,145,77)" ry="54.198" rx="53.577" cy="362.390072" cx="371.975732"/>
  </g>
  <g id="svg_7" transform="matrix(0.416667,0,0,0.416667,0,0) ">
   <path id="svg_8" fill="white" fill-rule="nonzero" d="m298.579364,604.865015c7.5,-3.1 36.8,-25.7 65.1,-50c39.8,-34.2 63.3,-56.1 101.1,-94c31,-31 42.5,-44.3 44.4,-51.2c6.7,-24.2 -66.6,-290.1 -81.5,-295.8c-9.1,-3.5 -90.4,64.1 -162.4,134.9c-42.2,41.5 -53.9,55.3 -54.8,64.3c-0.6,7 1.8,24.5 6.3,45.2c17.9,82.2 50.5,195.8 67,233.1c6.9,15.8 7.7,16.5 14.8,13.5z"/>
  </g>
 </g>
</svg>